<svg xmlns="http://www.w3.org/2000/svg" viewBox="0 0 1200 675">
  <rect width="1200" height="675" fill="#f7f2eb"/>
  <path d="M0 0h1200v675H0z" fill="#c9a84c" opacity=".12"/>
  <rect x="330" y="205" width="540" height="310" rx="92" fill="#1e3d2f"/>
  <path d="M448 225c18-90 286-90 304 0" fill="none" stroke="#1e3d2f" stroke-width="42" stroke-linecap="round"/>
  <path d="M420 318h360M430 392h340" stroke="#f7f2eb" stroke-width="12" stroke-linecap="round" opacity=".45"/>
  <rect x="410" y="270" width="156" height="150" rx="34" fill="#b85c38"/>
  <circle cx="865" cy="196" r="60" fill="#d8e95f"/>
  <path d="M828 151c45 29 70 72 75 128M805 184c52 16 90 49 113 99" fill="none" stroke="#f7f2eb" stroke-width="8" opacity=".78"/>
  <path d="M185 455c85-68 178-68 278 0M745 560c85-68 178-68 278 0" fill="none" stroke="#c9a84c" stroke-width="18" stroke-linecap="round"/>
  <text x="70" y="105" fill="#1e3d2f" font-family="Arial, sans-serif" font-size="24" font-weight="700" letter-spacing="5">GEAR ESSENTIALS</text>
  <text x="70" y="572" fill="#1e3d2f" font-family="Arial, sans-serif" font-size="58" font-weight="900">Tennis Bag Review</text>
</svg>
