<svg xmlns="http://www.w3.org/2000/svg" viewBox="0 0 1200 675">
  <rect width="1200" height="675" fill="#f7f2eb"/>
  <rect x="0" y="0" width="1200" height="675" fill="#1e3d2f" opacity=".08"/>
  <path d="M0 520c190-80 380-58 585-135 222-84 396-174 615-110v400H0z" fill="#c9a84c" opacity=".28"/>
  <circle cx="915" cy="165" r="72" fill="#d8e95f"/>
  <path d="M890 105c54 40 78 88 72 144M854 141c62 28 101 70 118 126" fill="none" stroke="#f7f2eb" stroke-width="8" opacity=".75"/>
  <g transform="translate(360 78) rotate(-28 250 250)">
    <ellipse cx="290" cy="210" rx="142" ry="205" fill="none" stroke="#1e3d2f" stroke-width="28"/>
    <ellipse cx="290" cy="210" rx="104" ry="166" fill="none" stroke="#b85c38" stroke-width="10"/>
    <path d="M188 92h204M168 152h244M156 212h268M170 272h240M195 332h190M212 45v334M260 18v384M312 18v384M360 45v334" stroke="#1e3d2f" stroke-width="5" opacity=".42"/>
    <path d="M290 414l-26 150c-6 36 18 70 55 76 37 6 70-19 76-55l26-150z" fill="#1e3d2f"/>
    <path d="M276 494l118 20" stroke="#f7f2eb" stroke-width="10"/>
  </g>
  <text x="70" y="105" fill="#1e3d2f" font-family="Arial, sans-serif" font-size="24" font-weight="700" letter-spacing="5">JOJO TENNIS TEST LAB</text>
  <text x="70" y="572" fill="#1e3d2f" font-family="Arial, sans-serif" font-size="58" font-weight="900">Control Racket Review</text>
</svg>
